<svg width="26" height="24" viewBox="0 0 26 24" fill="none" xmlns="http://www.w3.org/2000/svg">
<g clip-path="url(#clip0_117_342)">
<path fill-rule="evenodd" clip-rule="evenodd" d="M1.37891 2.00509C1.37891 1.47331 1.59016 0.963308 1.96618 0.58728C2.34221 0.211253 2.85221 2.67307e-06 3.384 2.67307e-06H23.3716C23.6352 -0.000427747 23.8962 0.0511258 24.1398 0.151712C24.3834 0.252298 24.6047 0.399941 24.7912 0.586188C24.9776 0.772435 25.1255 0.993628 25.2264 1.2371C25.3272 1.48058 25.379 1.74156 25.3789 2.00509V21.9927C25.3792 22.2563 25.3275 22.5174 25.2268 22.761C25.1261 23.0046 24.9783 23.2259 24.792 23.4123C24.6057 23.5988 24.3844 23.7466 24.1409 23.8475C23.8973 23.9483 23.6363 24.0001 23.3727 24H3.384C3.12059 24 2.85977 23.9481 2.61643 23.8473C2.37309 23.7464 2.152 23.5986 1.9658 23.4123C1.77959 23.226 1.63192 23.0049 1.53122 22.7615C1.43052 22.5181 1.37876 22.2572 1.37891 21.9938V2.00509ZM10.8785 9.15055H14.1284V10.7825C14.5975 9.84437 15.7975 9 17.6007 9C21.0578 9 21.8771 10.8687 21.8771 14.2975V20.6487H18.3785V15.0785C18.3785 13.1258 17.9095 12.024 16.7182 12.024C15.0655 12.024 14.3782 13.212 14.3782 15.0785V20.6487H10.8785V9.15055ZM4.87854 20.4993H8.37818V9H4.87854V20.4982V20.4993ZM8.87891 5.24946C8.8855 5.5491 8.83218 5.84704 8.72208 6.1258C8.61197 6.40456 8.44729 6.65851 8.2377 6.87276C8.02812 7.08702 7.77785 7.25725 7.50158 7.37346C7.22532 7.48968 6.92862 7.54955 6.62891 7.54955C6.32919 7.54955 6.03249 7.48968 5.75623 7.37346C5.47996 7.25725 5.22969 7.08702 5.02011 6.87276C4.81052 6.65851 4.64584 6.40456 4.53574 6.1258C4.42563 5.84704 4.37231 5.5491 4.37891 5.24946C4.39186 4.6613 4.6346 4.10159 5.05514 3.69021C5.47569 3.27882 6.04061 3.04846 6.62891 3.04846C7.21721 3.04846 7.78212 3.27882 8.20267 3.69021C8.62321 4.10159 8.86595 4.6613 8.87891 5.24946Z" fill="#005C30"/>
</g>
<defs>
<clipPath id="clip0_117_342">
<rect width="25" height="24" fill="white" transform="translate(0.5)"/>
</clipPath>
</defs>
</svg>
