<svg width="18" height="18" viewBox="0 0 18 18" fill="none" xmlns="http://www.w3.org/2000/svg">
<path d="M12.5179 9.71305C12.5113 8.59786 13.0166 7.75738 14.0369 7.13765C13.4663 6.32007 12.6029 5.87039 11.4648 5.78373C10.3872 5.6987 9.20827 6.41163 8.77659 6.41163C8.32038 6.41163 7.27714 5.81316 6.45628 5.81316C4.76224 5.83932 2.96191 7.16381 2.96191 9.85858C2.96191 10.6549 3.10744 11.4774 3.39851 12.3244C3.78768 13.4396 5.19065 16.172 6.65413 16.1278C7.4194 16.1098 7.96064 15.585 8.95646 15.585C9.92284 15.585 10.4232 16.1278 11.2768 16.1278C12.7533 16.1066 14.0222 13.6227 14.3918 12.5043C12.4116 11.5706 12.5179 9.77028 12.5179 9.71305ZM10.7993 4.72577C11.6283 3.7414 11.5531 2.84532 11.5286 2.52319C10.796 2.56571 9.94901 3.02192 9.46663 3.58279C8.9352 4.18453 8.62288 4.92853 8.68992 5.76738C9.48135 5.82788 10.2041 5.42072 10.7993 4.72577Z" fill="white"/>
</svg>
