<svg width="218" height="22" viewBox="0 0 218 22" fill="none" xmlns="http://www.w3.org/2000/svg">
<path d="M12.1215 12.0536L9.11261 4.74908L6.15757 12.0536H12.1215ZM12.9117 14.0036H5.36737L2.57 20.8854H0.274414L8.45318 0.900879H12.0157L20.2214 20.8854H15.734L12.9117 14.0036Z" fill="#43936C"/>
<path d="M24.4609 0.900879H29.0771L35.487 15.4272L41.8989 0.900879H44.2464L35.4082 20.8854H33.3241L24.4609 0.900879Z" fill="#43936C"/>
<path d="M60.3188 12.0536L57.312 4.74908L54.3569 12.0536H60.3188ZM61.1107 14.0036H53.5645L50.7694 20.8854H48.4736L56.6525 0.900879H60.213L68.4187 20.8854H63.9334L61.1107 14.0036Z" fill="#43936C"/>
<path d="M92.1542 14.4263V0.900879H94.2918V20.8854H92.1542L79.2787 7.09682V20.8854H77.1426V0.900879H79.2787L92.1542 14.4263Z" fill="#43936C"/>
<path d="M110.263 2.85092H103.112V0.900879H121.633V2.85092H114.483V20.8854H110.263V2.85092Z" fill="#43936C"/>
<path d="M130.55 20.3841L129.47 13.7674H130.656L132.819 18.0363C133.479 19.3293 134.826 19.5407 136.303 19.5407C138.333 19.5407 139.996 18.5128 139.996 16.5608C139.996 14.6108 138.65 13.6079 136.118 12.7645L134.667 12.29C131.369 11.2083 129.601 9.17952 129.601 6.12092C129.601 2.24582 133.401 0.347656 137.385 0.347656C138.835 0.347656 140.419 0.532093 141.684 0.979739L142.845 7.25444H141.657L139.415 3.03545C138.967 2.19203 137.86 2.03449 136.751 2.03449C134.878 2.03449 133.294 3.01047 133.294 4.85484C133.294 6.14782 133.901 7.41198 135.853 8.046L137.304 8.52052C141.13 9.75969 143.795 11.314 143.795 15.0854C143.795 19.0123 139.865 21.2275 136.091 21.2275C134.034 21.2275 132.319 21.0162 130.55 20.3841Z" fill="#43936C"/>
<path d="M158.309 2.85092H151.158V0.900879H169.681V2.85092H162.531V20.8854H158.309V2.85092Z" fill="#43936C"/>
<path d="M185.354 12.0536L182.347 4.74908L179.392 12.0536H185.354ZM186.144 14.0036H178.599L175.802 20.8854H173.509L181.687 0.900879H185.248L193.454 20.8854H188.968L186.144 14.0036Z" fill="#43936C"/>
<path d="M209.222 20.8854H205V11.8672L196.902 0.900879H201.861L208.246 9.60015L214.736 0.900879H217.322L209.222 11.8941V20.8854Z" fill="#43936C"/>
</svg>
