<svg width="18" height="17" viewBox="0 0 18 17" fill="none" xmlns="http://www.w3.org/2000/svg">
<g clip-path="url(#clip0_138_261)">
<path d="M9.46683 8.31424L2.66211 15.3647L2.66311 15.3687C2.77284 15.7539 3.00589 16.0925 3.32654 16.3325C3.64719 16.5726 4.03773 16.7008 4.43826 16.6975C4.77824 16.6975 5.09717 16.6073 5.37096 16.4508L5.39302 16.4378L13.0522 12.1243L9.46683 8.31323V8.31424Z" fill="#EA4335"/>
<path d="M16.3519 7.1142L16.3449 7.11019L13.0383 5.23877L9.3125 8.47414L13.0513 12.1227L16.3409 10.2703C16.9175 9.96647 17.3087 9.37375 17.3087 8.68877C17.3087 8.0098 16.9226 7.41909 16.3519 7.1142Z" fill="#FBBC04"/>
<path d="M2.66081 1.98511C2.6207 2.13153 2.59863 2.28598 2.59863 2.44644V14.9025C2.59863 15.063 2.61969 15.2185 2.66081 15.3639L9.70121 8.49497L2.65981 1.98511H2.66081Z" fill="#4285F4"/>
<path d="M9.51697 8.67462L13.0392 5.23766L5.38701 0.908112C5.09918 0.739754 4.7717 0.651132 4.43826 0.651368C3.58779 0.651368 2.86971 1.216 2.66211 1.98222V1.98423L9.51597 8.67462H9.51697Z" fill="#34A853"/>
</g>
<defs>
<clipPath id="clip0_138_261">
<rect width="16.7442" height="16.0465" fill="white" transform="translate(0.745117 0.651367)"/>
</clipPath>
</defs>
</svg>
