<svg width="100" height="19" viewBox="0 0 100 19" fill="none" xmlns="http://www.w3.org/2000/svg">
<path d="M28.4817 0.456537V11.2907C28.4817 13.1975 29.4359 14.4967 31.4693 14.4967C33.0302 14.4967 34.3874 13.582 34.7769 12.028L34.7883 11.9804V0.456537H39.974V18.5949H34.8293V16.9317C33.7921 18.0667 32.0083 19 29.8502 19C25.7426 19 23.3836 16.3755 23.3369 12.4247L23.3359 12.3043V0.456537H28.4807H28.4817ZM10.0902 0.236267C11.6131 0.236267 13.0759 0.614267 14.3674 1.2956V0.466797H19.4598V18.6537H14.3674V17.7027C13.075 18.3709 11.6131 18.7359 10.0902 18.7359C5.0664 18.7359 0.796875 14.9577 0.796875 9.4865C0.796875 4.1451 5.0664 0.237197 10.0902 0.237197V0.236267ZM64.3264 0.0505371C68.1055 0.0505371 70.3798 2.5957 70.4245 6.6231L70.4255 6.7453V18.594H65.2807V7.8009C65.2807 5.8531 64.4093 4.5548 62.6255 4.5548C61.3112 4.5548 60.1198 5.35 59.7731 6.8611L59.7626 6.9087V18.5949H54.5769V7.8009C54.5769 5.8531 53.7474 4.5548 51.9626 4.5548C50.6483 4.5548 49.4159 5.35 49.0693 6.8611L49.0588 6.9087V18.5949H43.914V0.456537H49.0588V1.9583C49.9712 0.822397 51.6731 0.0514669 53.7474 0.0514669C55.9464 0.0514669 57.6893 1.0249 58.7264 2.3643C59.9293 1.066 61.714 0.0514669 64.3274 0.0514669L64.3264 0.0505371ZM84.3217 0.0505371C88.4702 0.0505371 90.8293 2.6751 90.8759 6.6259V6.7463V18.5949H85.7312V7.8009C85.7312 5.8941 84.735 4.5949 82.7026 4.5949C81.1417 4.5949 79.7845 5.5096 79.355 7.0636L79.3426 7.1112V18.5949H74.1979V0.456537H79.3426V2.1197C80.3388 0.983868 82.1636 0.0505371 84.3217 0.0505371ZM99.795 0.456537V18.5949H94.6502V0.456537H99.795ZM10.0569 5.1624C7.70069 5.1624 5.69877 6.9889 5.69877 9.4856C5.68438 10.0528 5.78687 10.617 6.00011 11.1444C6.21337 11.6718 6.53298 12.1517 6.93983 12.5553C7.34668 12.9589 7.83243 13.278 8.36801 13.4933C8.90359 13.7087 9.47801 13.816 10.0569 13.8088C12.354 13.8088 14.3559 12.0429 14.3559 9.4856C14.3559 6.9889 12.3531 5.1624 10.0569 5.1624Z" fill="#43936C"/>
</svg>
