<svg width="83" height="38" viewBox="0 0 83 38" fill="none" xmlns="http://www.w3.org/2000/svg">
<path d="M2.65885 36.3867C2.25153 36.5535 2.02072 36.3451 2.15649 35.9144L3.31056 32.0938C3.45465 31.5749 3.50526 31.0335 3.45991 30.4961L0.988846 6.40573C0.977636 6.29948 0.987558 6.19201 1.01802 6.08978C1.04847 5.98756 1.09883 5.89271 1.16607 5.81093C1.2333 5.72915 1.31601 5.66215 1.40923 5.61395C1.50244 5.56575 1.60422 5.53735 1.70844 5.53047L82.2489 0.00107216C82.3485 -0.00766303 82.4488 0.00622306 82.5426 0.0417381C82.6363 0.0772533 82.7213 0.133521 82.7913 0.20652C82.8613 0.279519 82.9148 0.367447 82.9477 0.464022C82.9807 0.560597 82.9925 0.663434 82.9821 0.765185L79.71 37.2342C79.6867 37.4531 79.5821 37.6544 79.4178 37.7966C79.2536 37.9388 79.0422 38.011 78.8274 37.9983L10.3979 33.497C9.87005 33.4805 9.34418 33.5702 8.85009 33.761L2.65885 36.3867ZM39.5755 16.242C38.6658 16.242 37.9462 16.5337 37.4167 17.0894V13.1716H35.706V21.3407C35.706 22.5355 36.059 23.5219 36.7514 24.2582C37.4439 24.9945 38.3943 25.3696 39.5891 25.3696C40.7839 25.3696 41.7479 24.9945 42.4403 24.2582C43.1328 23.5219 43.4858 22.5355 43.4858 21.3407V20.3543C43.4722 17.6313 42.1688 16.242 39.5755 16.242ZM39.5755 17.9508C40.2951 17.9508 40.8382 18.1314 41.2048 18.5065C41.5714 18.8816 41.7615 19.5068 41.7615 20.3682V21.3546C41.7615 22.077 41.5714 22.6327 41.1776 23.0634C40.7839 23.4941 40.268 23.6886 39.5755 23.6886C38.8831 23.6886 38.3536 23.4802 37.987 23.0634C37.6204 22.6466 37.4167 22.077 37.4167 21.3546V20.3543C37.4167 19.4929 37.6068 18.8677 37.9598 18.4926C38.3128 18.1175 38.8695 17.9508 39.5755 17.9508ZM51.9987 18.2009H46.5814V13.1438H44.8163V25.2724H46.5814V19.9653H51.9987V25.2724H53.7774V13.1438H51.9987V18.2009ZM67.1917 16.242C66.282 16.242 65.5624 16.5337 65.0329 17.0894V13.1716H63.3222V21.3407C63.3222 22.5355 63.6752 23.5219 64.3676 24.2582C65.0601 24.9945 66.0105 25.3696 67.2053 25.3696C68.4001 25.3696 69.3641 24.9945 70.0565 24.2582C70.749 23.5219 71.102 22.5355 71.102 21.3407V20.3543C71.0884 17.6313 69.7714 16.242 67.1917 16.242ZM67.1917 17.9508C67.9113 17.9508 68.4544 18.1314 68.821 18.5065C69.1876 18.8816 69.3777 19.5068 69.3777 20.3682V21.3546C69.3777 22.0631 69.1876 22.6466 68.7938 23.0634C68.4001 23.4802 67.8706 23.6886 67.1917 23.6886C66.5128 23.6886 65.9698 23.4802 65.6032 23.0634C65.2366 22.6466 65.0329 22.077 65.0329 21.3546V20.3543C65.0329 19.4929 65.223 18.8677 65.576 18.4926C65.929 18.1175 66.4857 17.9508 67.1917 17.9508ZM32.6647 21.2573C32.6647 22.1604 32.5289 22.8133 32.2709 23.1606C32.013 23.508 31.5921 23.6747 30.9539 23.6747H30.8996C30.2751 23.6747 29.827 23.4941 29.5826 23.1606C29.3247 22.7994 29.1889 22.1604 29.1889 21.2573V16.4781H27.5053V21.2573C27.5053 22.7161 27.7633 23.7858 28.2928 24.411C28.7952 25.0223 29.6098 25.3418 30.7231 25.3696H31.1169C32.2302 25.3418 33.0448 25.0223 33.5472 24.411C34.0631 23.7719 34.3347 22.7161 34.3347 21.2573V16.4781H32.6647V21.2573ZM60.2809 21.2573C60.2809 22.1604 60.1451 22.7994 59.8871 23.1606C59.6427 23.4941 59.2083 23.6747 58.5837 23.6747H58.5023C57.8777 23.6747 57.4296 23.4941 57.1853 23.1606C56.9273 22.7994 56.7915 22.1604 56.7915 21.2573V16.4781H55.1079V21.2573C55.1079 22.7161 55.3659 23.7858 55.8954 24.411C56.3978 25.0223 57.2124 25.3418 58.3257 25.3696H58.7331C59.8464 25.3418 60.661 25.0223 61.1634 24.411C61.6658 23.7997 61.9509 22.7161 61.9509 21.2573V16.4781H60.2673V21.2573H60.2809ZM19.0602 18.701L14.9463 17.2978C14.7032 17.2201 14.4804 17.0871 14.2946 16.9088C14.227 16.85 14.1718 16.7779 14.1321 16.6967C14.0924 16.6156 14.0692 16.527 14.0638 16.4365V16.1586C14.0638 15.1722 14.8649 14.6721 16.5077 14.6443H16.6571C18.2999 14.6443 19.1417 15.0888 19.2367 15.9919L19.2503 16.1308H21.0154V15.978C20.9339 13.9218 19.4676 12.866 16.6571 12.866H16.4806C13.7244 12.8938 12.3395 14.0052 12.3395 16.1586V16.4365C12.3345 17.0088 12.5268 17.5647 12.8826 18.0064C13.2356 18.437 13.7651 18.7705 14.4304 18.9928L18.5036 20.3959C19.196 20.6321 19.5355 21.0211 19.5355 21.6046V21.8547C19.5355 22.3687 19.2911 22.7577 18.7887 23.0634C18.2863 23.369 17.5396 23.5358 16.6163 23.5358C15.6931 23.5358 14.9735 23.3829 14.4711 23.0634C13.9688 22.7439 13.7515 22.3687 13.7515 21.8547V21.6741H12.0001V21.8547C11.9883 22.3474 12.0948 22.8355 12.3102 23.2763C12.5256 23.7172 12.8434 24.0972 13.2356 24.3832C14.0502 24.9945 15.1771 25.3141 16.6163 25.3141C18.0555 25.3141 19.2232 25.0084 20.0242 24.3832C20.4186 24.0994 20.738 23.7197 20.9537 23.2784C21.1693 22.8371 21.2745 22.3479 21.2598 21.8547V21.6046C21.2745 20.9452 21.0632 20.3013 20.6624 19.7847C20.2399 19.2749 19.6841 18.8989 19.0602 18.701ZM24.8985 23.0773C24.5183 22.6605 24.3282 22.0909 24.3282 21.3685V18.2564H26.1612V16.4781H24.3282V13.1716H22.6175V21.3685C22.6175 22.5632 22.9705 23.5496 23.6629 24.286C24.2853 24.9279 25.1163 25.3135 25.9982 25.3696L26.1612 25.3835V23.6886L26.039 23.6747C25.6043 23.6115 25.2028 23.4011 24.8985 23.0773ZM70.6675 15.9919H70.8847V16.631H70.9934V15.9919H71.2106V15.9085H70.6675V15.9919ZM71.6586 16.4226L71.4686 15.9085H71.3056V16.631H71.4007V16.0336L71.6315 16.631H71.6994L71.9166 16.0336V16.631H72.0252V15.9085H71.8487L71.6586 16.4226Z" fill="#43936C"/>
</svg>
